<svg viewBox="0 0 32 32" xmlns="http://www.w3.org/2000/svg">
  <defs>
    <filter id="shadow" x="-20%" y="-20%" width="140%" height="140%">
      <feDropShadow dx="0" dy="1.2" stdDeviation="1.0" flood-color="#000" flood-opacity="0.2" />
    </filter>
    <linearGradient id="skinGrad" x1="0%" y1="0%" x2="0%" y2="100%">
      <stop offset="0%" stop-color="#FFEBE0" />
      <stop offset="100%" stop-color="#FFD1B3" />
    </linearGradient>
  </defs>
    <g transform="translate(1.5, 3)" fill="none" stroke="#ffffff" stroke-width="2.2" stroke-linejoin="round" stroke-linecap="round" filter="url(#shadow)">
    
    <!-- Base Body & Head Outlines (Sticker effect) -->
    <path d="M 9.0 22.0 C 7.5 26.0 8.0 29.5 15.0 29.5 C 22.0 29.5 22.5 26.0 21.0 22.0 Z" fill="#ffffff" stroke="#ffffff" stroke-width="2.2" stroke-linejoin="round" />
    <path d="M 8.0 18.0 C 6.5 12.0 8.5 7.8 15.0 7.2 C 21.5 6.6 23.5 11.5 22.0 17.5 C 20.8 22.0 19.5 22.2 15.0 22.0 C 10.5 21.8 9.2 22.0 8.0 18.0 Z" fill="#ffffff" stroke="#ffffff" stroke-width="2.2" stroke-linejoin="round" />
  
    
      <!-- Hair sticks straight up -->
      <line x1="15" y1="7.5" x2="15" y2="2.0" stroke="#ffffff" stroke-width="2.2" />
    
  </g>

  <g transform="translate(1.5, 3)">
    
    <!-- Ears (Small asymmetrical flaps) -->
    <path d="M 7.2 14.0 C 5.5 14.0 5.5 16.5 7.2 16.5" fill="url(#skinGrad)" stroke="#1E1B18" stroke-width="0.8" />
    <path d="M 22.8 14.0 C 24.5 14.0 24.5 16.5 22.8 16.5" fill="url(#skinGrad)" stroke="#1E1B18" stroke-width="0.8" />

    <!-- Body (Green Shirt) -->
    <path d="M 9.5 22.0 C 8.5 26.0 9.0 28.5 15.0 28.5 C 21.0 28.5 21.5 26.0 20.5 22.0 Z" fill="#15803D" stroke="#1E1B18" stroke-width="0.8" stroke-linejoin="round" />
    
    <!-- Head (Lumpy pear-shaped face) -->
    <path d="M 8.0 18.0 C 6.5 12.0 8.5 7.8 15.0 7.2 C 21.5 6.6 23.5 11.5 22.0 17.5 C 20.8 22.0 19.5 22.2 15.0 22.0 C 10.5 21.8 9.2 22.0 8.0 18.0 Z" fill="url(#skinGrad)" stroke="#1E1B18" stroke-width="0.8" stroke-linejoin="round" />
    
    <!-- Nose (Bulbous lumpy nose) -->
    <path d="M 14.0 13.2 Q 13.0 14.0 13.5 15.2 Q 14.8 16.5 16.0 15.0 Q 16.5 13.5 15.0 13.2" fill="url(#skinGrad)" stroke="#1E1B18" stroke-width="0.8" stroke-linejoin="round" />
  
    
      <!-- Angry hair strand pointing straight up -->
      <line x1="15" y1="7.5" x2="15" y2="2.0" fill="none" stroke="#1E1B18" stroke-width="1.8" stroke-linecap="round" />

      <!-- Deep sloped angry eyebrows -->
      <path d="M 10.0 11.0 Q 12.0 12.5 13.5 10.5" fill="none" stroke="#1E1B18" stroke-width="1.0" stroke-linecap="round" />
      <path d="M 20.0 11.0 Q 18.0 12.5 16.5 10.5" fill="none" stroke="#1E1B18" stroke-width="1.0" stroke-linecap="round" />

      <!-- Screaming crying eyes -->
      <circle cx="12.0" cy="13.5" r="1.6" fill="#1E1B18" />
      <path d="M 9.5 14.5 Q 11.5 15.5 13.0 14.5" stroke="#72CEFF" stroke-width="1.2" fill="none" stroke-linecap="round" />
      
      <circle cx="18.0" cy="13.5" r="1.6" fill="#1E1B18" />
      <path d="M 17.0 14.5 Q 18.5 15.5 20.5 14.5" stroke="#72CEFF" stroke-width="1.2" fill="none" stroke-linecap="round" />

      <!-- Screaming mouth with square teeth -->
      <path d="M 11.5 17.0 C 11.5 15.5 18.5 15.5 18.5 17.0 C 18.5 23.0 11.5 23.0 11.5 17.0 Z" fill="#742A2A" stroke="#1E1B18" stroke-width="0.8" />
      <!-- Upper teeth -->
      <rect x="13.8" y="17.0" width="2.4" height="1.4" fill="#ffffff" stroke="#1E1B18" stroke-width="0.6" />
      <line x1="15.0" y1="17.0" x2="15.0" y2="18.4" stroke="#1E1B18" stroke-width="0.6" />
      <!-- Thick lips -->
      <path d="M 11.0 17.0 C 11.0 15.0 19.0 15.0 19.0 17.0 C 19.0 24.0 11.0 24.0 11.0 17.0 Z" fill="none" stroke="#E55D75" stroke-width="1.5" />

      <!-- Tears streaming -->
      <path d="M 10.0 15.0 L 9.0 18.0" stroke="#72CEFF" stroke-width="0.8" fill="none" />
      <path d="M 20.0 15.0 L 21.0 18.0" stroke="#72CEFF" stroke-width="0.8" fill="none" />
    
  </g>
</svg>