<svg viewBox="0 0 32 32" xmlns="http://www.w3.org/2000/svg">
  <defs>
    <filter id="shadow" x="-20%" y="-20%" width="140%" height="140%">
      <feDropShadow dx="0" dy="1.5" stdDeviation="1" flood-color="#000" flood-opacity="0.2" />
    </filter>
  </defs>
  <g transform="translate(4, 4)">
    <!-- White background outline silhouette -->
    <path d="M20.998 10.949H24v3.102h-3v3.028h-1.487V20H18v-2.921h-1.487V20H15v-2.921H9V20H7.488v-2.921H6V20H4.487v-2.921H3V14.05H0V10.95h3V5h17.998v5.949z" 
          fill="#ffffff" 
          stroke="#ffffff" 
          stroke-width="1.6" 
          stroke-linejoin="round" 
          stroke-linecap="round"
          filter="url(#shadow)" />
    
    <!-- Foreground coral color -->
    <path d="M20.998 10.949H24v3.102h-3v3.028h-1.487V20H18v-2.921h-1.487V20H15v-2.921H9V20H7.488v-2.921H6V20H4.487v-2.921H3V14.05H0V10.95h3V5h17.998v5.949z" 
          fill="#D97757" />

    <!-- Closed eyes -->
    <rect x="6" y="9.2" width="1.488" height="0.6" fill="#000000" rx="0.1" ry="0.1" />
    <rect x="16.51" y="9.2" width="1.49" height="0.6" fill="#000000" rx="0.1" ry="0.1" />
  </g>
</svg>
