<svg viewBox="0 0 32 32" xmlns="http://www.w3.org/2000/svg">
  <defs>
    <filter id="shadow" x="-20%" y="-20%" width="140%" height="140%">
      <feDropShadow dx="0" dy="1.5" stdDeviation="1" flood-color="#000" flood-opacity="0.2" />
    </filter>
  </defs>
  <g id="pet-body" transform="translate(4, 4)">
    <!-- White Outline for Sticker Effect -->
    <path d="M 12 4 Q 13 2 12 1 T 13 -1 M 12 4 C 5 4 3 8 3 13 C 3 19 6 20 12 20 C 18 20 21 19 21 13 C 21 8 19 4 12 4 M 3 10 C 1.5 10 0.5 11 0.5 12.5 C 0.5 14 2 14.5 3 13.5 M 21 10 C 22.5 10 23.5 11 23.5 12.5 C 23.5 14 22 14.5 21 13.5 M 8 20 L 10 21 M 16 20 L 14 21"
          fill="none"
          stroke="#ffffff"
          stroke-width="2.5"
          stroke-linejoin="round"
          stroke-linecap="round"
          filter="url(#shadow)" />

    <!-- Legs (Sitting/Sleeping Pose) -->
    <path d="M 8 20 L 10 21 M 16 20 L 14 21" fill="none" stroke="#1E1B18" stroke-width="1.2" stroke-linecap="round" />

    <!-- Main Face Body -->
    <ellipse cx="12" cy="12" rx="9" ry="8" fill="#FCE0C5" stroke="#1E1B18" stroke-width="1.0" />

    <!-- Curly Side Hair -->
    <path d="M 3 10 C 2 9.5 1 10 1 11 C 1 12 2 12.5 3 12.5 C 2 12.5 1.5 13 1.5 14 C 1.5 15 2.5 15.5 3.5 15" fill="#1E1B18" stroke="#1E1B18" stroke-width="0.5" />
    <path d="M 21 10 C 22 9.5 23 10 23 11 C 23 12 22 12.5 21 12.5 C 22 12.5 22.5 13 22.5 14 C 22.5 15 21.5 15.5 20.5 15" fill="#1E1B18" stroke="#1E1B18" stroke-width="0.5" />

    <!-- Mustache -->
    <path d="M 6.2 15.2 Q 8.5 13.6 12 13.6 Q 15.5 13.6 17.8 15.2 Q 15.5 14.2 12 14.2 Q 8.5 14.2 6.2 15.2 Z" fill="#1E1B18" stroke="#1E1B18" stroke-width="0.5" />

    <!-- Mouth & Chin -->
    <ellipse cx="12" cy="16.2" rx="3" ry="1.5" fill="#F5BCAE" />
    <line x1="10.5" y1="16.2" x2="13.5" y2="16.2" stroke="#1E1B18" stroke-width="0.8" stroke-linecap="round" />

    <!-- Eyebrows -->
    <path d="M 6.5 8.5 L 9 8.5" stroke="#1E1B18" stroke-width="1.2" stroke-linecap="round" />
    <path d="M 15 8.5 L 17.5 8.5" stroke="#1E1B18" stroke-width="1.2" stroke-linecap="round" />

    <!-- Sleeping closed eyes (line paths) -->
    <g id="eyes">
      <path id="left-eye" d="M 6.8 10 Q 7.8 11 8.8 10" fill="none" stroke="#1E1B18" stroke-width="1.2" stroke-linecap="round" />
      <path id="right-eye" d="M 15.2 10 Q 16.2 11 17.2 10" fill="none" stroke="#1E1B18" stroke-width="1.2" stroke-linecap="round" />
    </g>

    <!-- Top Single Hair -->
    <path d="M 12 4 Q 13 2 12 1 T 13 -1" fill="none" stroke="#1E1B18" stroke-width="1.0" stroke-linecap="round" />

    <!-- Floating zZ -->
    <text x="21" y="5" font-family="monospace" font-size="3.5" fill="#8b5cf6" font-weight="bold">z</text>
    <text x="23" y="2" font-family="monospace" font-size="4.5" fill="#8b5cf6" font-weight="bold">Z</text>
  </g>
</svg>
