<svg viewBox="0 0 32 32" xmlns="http://www.w3.org/2000/svg">
  <defs>
    <filter id="shadow" x="-20%" y="-20%" width="140%" height="140%">
      <feDropShadow dx="0" dy="1.5" stdDeviation="1" flood-color="#000" flood-opacity="0.25" />
    </filter>
  </defs>
  <g transform="translate(4, 4)">
    <!-- White background outline silhouette -->
    <path d="M 5 5 L 5 2 H 7 V 5 H 17 V 2 H 19 V 5 V 10 H 22 V 13 H 19 V 14 H 23 V 8 H 21 V 14 H 19 V 17 H 17 V 20 H 15 V 17 H 9 V 20 H 7 V 17 H 5 V 13 H 2 V 10 H 5 Z" 
          fill="#ffffff" 
          stroke="#ffffff" 
          stroke-width="1.6" 
          stroke-linejoin="miter" 
          filter="url(#shadow)" />
    
    <!-- Foreground dark grey -->
    <path d="M 5 5 L 5 2 H 7 V 5 H 17 V 2 H 19 V 5 V 10 H 22 V 13 H 19 V 14 H 23 V 8 H 21 V 14 H 19 V 17 H 17 V 20 H 15 V 17 H 9 V 20 H 7 V 17 H 5 V 13 H 2 V 10 H 5 Z" 
          fill="#1E1B18" />

    <!-- Closed eyes -->
    <rect x="7" y="7" width="3" height="3" fill="#ffffff" />
    <rect x="14" y="7" width="3" height="3" fill="#ffffff" />
    <rect x="7" y="8" width="3" height="1" fill="#000000" />
    <rect x="14" y="8" width="3" height="1" fill="#000000" />
  </g>
</svg>
